<svg width="320" height="86" viewBox="0 0 320 86" fill="none" xmlns="http://www.w3.org/2000/svg">
<path d="M37.7035 29.664L37.8955 23.2H37.6075L33.2875 34.688L28.9675 23.2H28.6795L28.8715 29.664V40H25.2235V17.664H30.2155L33.3195 25.888H33.5435L36.6795 17.664H41.3515V40H37.7035V29.664ZM55.579 37.088H55.419C55.0563 37.984 54.491 38.7627 53.723 39.424C52.9763 40.064 51.931 40.384 50.587 40.384C48.9657 40.384 47.643 39.8507 46.619 38.784C45.6163 37.696 45.115 36.1493 45.115 34.144V23.488H49.211V33.568C49.211 35.9573 50.2457 37.152 52.315 37.152C52.7203 37.152 53.115 37.0987 53.499 36.992C53.9043 36.8853 54.2563 36.7253 54.555 36.512C54.875 36.2773 55.1203 36 55.291 35.68C55.483 35.36 55.579 34.976 55.579 34.528V23.488H59.675V40H55.579V37.088ZM71.5985 40.384C69.7852 40.384 68.2172 40.1067 66.8945 39.552C65.5718 38.976 64.5372 38.208 63.7905 37.248L66.1905 35.072C66.8732 35.8187 67.6518 36.3947 68.5265 36.8C69.4225 37.2053 70.4572 37.408 71.6305 37.408C72.6545 37.408 73.4758 37.2373 74.0945 36.896C74.7132 36.5547 75.0225 36.032 75.0225 35.328C75.0225 34.7307 74.8092 34.3253 74.3825 34.112C73.9772 33.8987 73.4332 33.7387 72.7505 33.632L70.0945 33.216C69.4118 33.1093 68.7398 32.96 68.0785 32.768C67.4385 32.5547 66.8625 32.2667 66.3505 31.904C65.8598 31.5413 65.4652 31.0827 65.1665 30.528C64.8678 29.952 64.7185 29.2587 64.7185 28.448C64.7185 26.72 65.3585 25.3973 66.6385 24.48C67.9398 23.5627 69.7212 23.104 71.9825 23.104C73.5825 23.104 74.9372 23.328 76.0465 23.776C77.1772 24.224 78.1052 24.8533 78.8305 25.664L76.6865 28.032C76.2172 27.52 75.5878 27.072 74.7985 26.688C74.0305 26.2827 73.0492 26.08 71.8545 26.08C69.7638 26.08 68.7185 26.7307 68.7185 28.032C68.7185 28.6293 68.9318 29.0453 69.3585 29.28C69.7852 29.4933 70.3398 29.6533 71.0225 29.76L73.6465 30.176C74.3505 30.2827 75.0225 30.4427 75.6625 30.656C76.3238 30.848 76.8998 31.1253 77.3905 31.488C77.9025 31.8507 78.3078 32.3093 78.6065 32.864C78.9052 33.4187 79.0545 34.1013 79.0545 34.912C79.0545 36.6187 78.3932 37.9627 77.0705 38.944C75.7692 39.904 73.9452 40.384 71.5985 40.384ZM91.234 40.384C89.9113 40.384 88.738 40.1813 87.714 39.776C86.69 39.3707 85.826 38.7947 85.122 38.048C84.4393 37.3013 83.9167 36.4053 83.554 35.36C83.1913 34.2933 83.01 33.0987 83.01 31.776C83.01 30.432 83.1913 29.2267 83.554 28.16C83.938 27.0933 84.4713 26.1867 85.154 25.44C85.8367 24.6933 86.658 24.1173 87.618 23.712C88.5993 23.3067 89.698 23.104 90.914 23.104C92.1087 23.104 93.186 23.3067 94.146 23.712C95.106 24.096 95.9167 24.6507 96.578 25.376C97.2607 26.1013 97.7833 26.976 98.146 28C98.5087 29.024 98.69 30.1547 98.69 31.392V32.736H87.106V33.152C87.106 34.3467 87.4793 35.3173 88.226 36.064C88.9727 36.7893 90.018 37.152 91.362 37.152C92.386 37.152 93.2607 36.9493 93.986 36.544C94.7327 36.1173 95.3513 35.5627 95.842 34.88L98.178 37.216C97.5807 38.0907 96.706 38.8373 95.554 39.456C94.4233 40.0747 92.9833 40.384 91.234 40.384ZM90.946 26.112C89.794 26.112 88.866 26.4747 88.162 27.2C87.458 27.9253 87.106 28.8853 87.106 30.08V30.304H94.594V30.016C94.594 28.8213 94.2633 27.872 93.602 27.168C92.962 26.464 92.0767 26.112 90.946 26.112ZM113.142 37.088H112.982C112.619 37.984 112.054 38.7627 111.286 39.424C110.539 40.064 109.494 40.384 108.15 40.384C106.528 40.384 105.206 39.8507 104.182 38.784C103.179 37.696 102.678 36.1493 102.678 34.144V23.488H106.774V33.568C106.774 35.9573 107.808 37.152 109.878 37.152C110.283 37.152 110.678 37.0987 111.062 36.992C111.467 36.8853 111.819 36.7253 112.118 36.512C112.438 36.2773 112.683 36 112.854 35.68C113.046 35.36 113.142 34.976 113.142 34.528V23.488H117.238V40H113.142V37.088ZM120.809 40V23.488H124.201V25.76H124.393C124.649 25.0347 125.012 24.416 125.481 23.904C125.972 23.3707 126.654 23.104 127.529 23.104C128.361 23.104 129.022 23.3493 129.513 23.84C130.004 24.3093 130.324 24.9813 130.473 25.856H130.633C130.91 25.1093 131.316 24.4693 131.849 23.936C132.404 23.3813 133.182 23.104 134.185 23.104C135.401 23.104 136.276 23.5413 136.809 24.416C137.342 25.2907 137.609 26.5813 137.609 28.288V40H134.249V28.768C134.249 27.808 134.11 27.136 133.833 26.752C133.577 26.368 133.182 26.176 132.649 26.176C132.158 26.176 131.742 26.336 131.401 26.656C131.081 26.976 130.921 27.4667 130.921 28.128V40H127.529V28.768C127.529 27.808 127.401 27.136 127.145 26.752C126.889 26.368 126.494 26.176 125.961 26.176C125.449 26.176 125.022 26.336 124.681 26.656C124.361 26.976 124.201 27.4667 124.201 28.128V40H120.809ZM110.038 82.384C108.779 82.384 107.648 82.1813 106.646 81.776C105.664 81.3707 104.822 80.7947 104.118 80.048C103.435 79.3013 102.902 78.3947 102.518 77.328C102.155 76.2613 101.974 75.0667 101.974 73.744C101.974 72.4213 102.155 71.2267 102.518 70.16C102.902 69.0933 103.435 68.1867 104.118 67.44C104.822 66.6933 105.664 66.1173 106.646 65.712C107.648 65.3067 108.779 65.104 110.038 65.104C111.275 65.104 112.395 65.3067 113.398 65.712C114.4 66.1173 115.243 66.6933 115.926 67.44C116.63 68.1867 117.163 69.0933 117.526 70.16C117.91 71.2267 118.102 72.4213 118.102 73.744C118.102 75.0667 117.91 76.2613 117.526 77.328C117.163 78.3947 116.63 79.3013 115.926 80.048C115.243 80.7947 114.4 81.3707 113.398 81.776C112.395 82.1813 111.275 82.384 110.038 82.384ZM110.038 79.248C111.211 79.248 112.139 78.896 112.822 78.192C113.504 77.4667 113.846 76.4107 113.846 75.024V72.464C113.846 71.0773 113.504 70.032 112.822 69.328C112.139 68.6027 111.211 68.24 110.038 68.24C108.864 68.24 107.936 68.6027 107.254 69.328C106.571 70.032 106.23 71.0773 106.23 72.464V75.024C106.23 76.4107 106.571 77.4667 107.254 78.192C107.936 78.896 108.864 79.248 110.038 79.248ZM122.025 78.768H127.081V68.72H121.705V65.488H127.081V62.8C127.081 62.1387 127.166 61.5413 127.337 61.008C127.529 60.4533 127.817 59.984 128.201 59.6C128.585 59.1947 129.065 58.8853 129.641 58.672C130.238 58.4373 130.932 58.32 131.721 58.32H137.289V61.552H131.177V65.488H137.289V68.72H131.177V78.768H136.553V82H122.025V78.768Z" fill="#343434"/>
<path d="M201.4 54V36.32H200.76L189 65.04L177.24 36.32H176.6V54V82H170.44V26.16H179.08L188.92 50.8H189.4L199.24 26.16H207.56V82H201.4V54ZM220.169 82V26.16H254.569V32H226.889V50.8H253.609V56.64H226.889V76.16H254.569V82H220.169Z" fill="#343434"/>
</svg>
